<svg width="12" height="12" viewBox="0 0 12 12" fill="none" xmlns="http://www.w3.org/2000/svg">
<g clip-path="url(#clip0)">
<path d="M6.66271 6.00075L11.8625 0.800963C12.0455 0.617893 12.0455 0.321081 11.8625 0.138035C11.6794 -0.0450116 11.3826 -0.0450351 11.1995 0.138035L5.99975 5.33782L0.799987 0.138035C0.616917 -0.0450351 0.320105 -0.0450351 0.137058 0.138035C-0.0459882 0.321105 -0.0460117 0.617917 0.137058 0.800963L5.33682 6.00073L0.137058 11.2005C-0.0460117 11.3836 -0.0460117 11.6804 0.137058 11.8634C0.228582 11.955 0.348558 12.0007 0.468535 12.0007C0.588511 12.0007 0.708464 11.955 0.800011 11.8634L5.99975 6.66368L11.1995 11.8634C11.291 11.955 11.411 12.0007 11.531 12.0007C11.651 12.0007 11.7709 11.955 11.8625 11.8634C12.0455 11.6804 12.0455 11.3836 11.8625 11.2005L6.66271 6.00075Z" fill="black"/>
</g>
<defs>
<clipPath id="clip0">
<rect width="12" height="12" fill="white"/>
</clipPath>
</defs>
</svg>
